<?xml version="1.0" encoding="UTF-8"?>
<svg width="44px" height="44px" viewBox="0 0 44 44" version="1.1" xmlns="http://www.w3.org/2000/svg" xmlns:xlink="http://www.w3.org/1999/xlink">
    <!-- Generator: Sketch 40 (33762) - http://www.bohemiancoding.com/sketch -->
    <title>aboutme</title>
    <desc>Created with Sketch.</desc>
    <defs>
        <circle id="path-1" cx="22" cy="22" r="22"></circle>
        <mask id="mask-2" maskContentUnits="userSpaceOnUse" maskUnits="objectBoundingBox" x="0" y="0" width="44" height="44" fill="white">
            <use xlink:href="#path-1"></use>
        </mask>
    </defs>
    <g id="Social-Icons" stroke="none" stroke-width="1" fill="none" fill-rule="evenodd">
        <g id="social-icons" transform="translate(-460.000000, -40.000000)">
            <g id="aboutme" transform="translate(460.000000, 40.000000)">
                <rect id="Rectangle" x="0" y="0" width="44" height="44"></rect>
                <use id="Oval" stroke="#000000" mask="url(#mask-2)" stroke-width="4" xlink:href="#path-1"></use>
                <path d="M21.4054512,28.1880716 L21.4054512,21.0683499 C21.4054512,19.8930544 20.885221,19.1020297 19.5974484,19.1020297 C18.5351296,19.1020297 17.5396351,19.8252933 17.0649953,20.5486818 L17.0649953,28.1880716 L14.6911719,28.1880716 L14.6911719,21.0683499 C14.6911719,19.8930544 14.1940492,19.1020297 12.9050274,19.1020297 C11.8427087,19.1020297 10.8709462,19.8476513 10.3731989,20.5486818 L10.3731989,28.1880716 L8,28.1880716 L8,17.2710443 L10.3731989,17.2710443 L10.3731989,18.7404916 C10.8484632,18.0848017 12.2730071,17 13.9454878,17 C15.5730026,17 16.5678726,17.8136325 16.9294732,18.989053 C17.5396351,18.0170406 18.9866619,17 20.6366597,17 C22.6263996,17 23.7792747,18.0848017 23.7792747,20.2999955 L23.7792747,28.1880716 L21.4054512,28.1880716 Z M25.1032698,22.7184726 C25.1032698,19.5538118 27.4096445,17 30.6421912,17 C33.9197038,17 36,19.4859259 36,22.9216934 L36,23.5094348 L27.5901325,23.5094348 C27.771245,25.1374493 28.9915689,26.5158407 31.0493822,26.5158407 C32.1341839,26.5158407 33.3776152,26.0859794 34.1688897,25.2947674 L35.2530669,26.8543962 C34.1457822,27.8946692 32.5401258,28.4596779 30.8226792,28.4596779 C27.5220592,28.4596779 25.1032698,26.1765357 25.1032698,22.7184726 Z M30.6197083,18.9438997 C28.6074854,18.9438997 27.6575813,20.503591 27.5676496,21.8143463 L33.7167328,21.8143463 C33.648035,20.5259491 32.7668287,18.9438997 30.6197083,18.9438997 Z" id="Shape" fill="#000000"></path>
            </g>
        </g>
    </g>
</svg>